<svg width="21" height="21" viewBox="0 0 21 21" fill="none" xmlns="http://www.w3.org/2000/svg">
<path d="M19.3 10.7084C19.3 10.0584 19.2417 9.43337 19.1333 8.83337H10.5V12.3792H15.4333C15.2208 13.525 14.575 14.4959 13.6042 15.1459V17.4459H16.5667C18.3 15.85 19.3 13.5 19.3 10.7084Z" fill="#4285F4"/>
<path d="M10.4964 19.6667C12.9714 19.6667 15.0464 18.8459 16.563 17.4459L13.6005 15.1459C12.7797 15.6959 11.7297 16.0209 10.4964 16.0209C8.10885 16.0209 6.08802 14.4084 5.36719 12.2417H2.30469V14.6167C3.81302 17.6125 6.91302 19.6667 10.4964 19.6667Z" fill="#34A853"/>
<path d="M5.37344 12.2416C5.1901 11.6916 5.08594 11.1041 5.08594 10.5C5.08594 9.8958 5.1901 9.3083 5.37344 8.7583V6.3833H2.31094C1.66927 7.66068 1.33537 9.07048 1.33594 10.5C1.33594 11.9791 1.6901 13.3791 2.31094 14.6166L5.37344 12.2416Z" fill="#FBBC05"/>
<path d="M10.4964 4.97909C11.8422 4.97909 13.0505 5.44159 14.0005 6.34992L16.6297 3.72075C15.0422 2.24159 12.9672 1.33325 10.4964 1.33325C6.91302 1.33325 3.81302 3.38742 2.30469 6.38325L5.36719 8.75825C6.08802 6.59159 8.10885 4.97909 10.4964 4.97909Z" fill="#EA4335"/>
</svg>
